<?xml version="1.0" encoding="utf-8"?>
<!-- Generator: Adobe Illustrator 26.0.1, SVG Export Plug-In . SVG Version: 6.00 Build 0)  -->
<svg version="1.1" id="Camada_1" xmlns="http://www.w3.org/2000/svg" xmlns:xlink="http://www.w3.org/1999/xlink" x="0px" y="0px"
	 viewBox="0 0 800 85" style="enable-background:new 0 0 800 85;" xml:space="preserve">
<style type="text/css">
	.st0{fill:#FFFFFF;}
</style>
<g>
	<path class="st0" d="M16.81,0.5h21.6l-6.24,44.28c20.81-7.13,41.62-14.26,62.44-21.39C86.8,31.8,78.98,40.21,71.17,48.62
		L29.65,62.78l-3,21.72H5.05L16.81,0.5z M70.45,53.54l24.6-21.24l-7.32,52.2h-21.6L70.45,53.54z M70.06,56.34
		c2.61-18.61,5.22-37.22,7.83-55.83h21.6c-1.68,12-3.35,24.01-5.03,36.01C86.32,43.12,78.19,49.73,70.06,56.34z"/>
	<path class="st0" d="M152.17,42.5l-4.08-15.12l-17.04,29.28l51.12-25.44L157.93,62.9l-42.96,21.6h-22.8l48.72-84h22.8l8.88,32.16
		L152.17,42.5z M163.69,84.5l-5.04-16.68l17.28-22.32l10.56,39H163.69z"/>
	<path class="st0" d="M201.97,0.5h21.6l33.48,55.8l7.8-55.8h21.6l-11.76,84h-21.6l-33.48-55.8l-7.8,55.8h-21.6L201.97,0.5z"/>
	<path class="st0" d="M366.96,62.9c-1.8,12.96-11.64,21.6-24.6,21.6h-36.35c-12.96,0-20.4-8.64-18.6-21.6l5.76-40.8
		c1.8-12.96,11.64-21.6,24.6-21.6h47.4l-11.88,16.8h-26.28c-6.96,0-12.36,5.16-13.44,12.96l-3.36,24.48
		c-1.08,7.8,2.64,12.96,9.6,12.96h24.84l2.76-18.84h-21.36l-7.32-16.8h30.96c12.96,0,20.4,8.64,18.6,21.6L366.96,62.9z"/>
	<path class="st0" d="M425.16,42.5l-4.08-15.12l-17.04,29.28l51.12-25.44L430.92,62.9l-42.96,21.6h-22.8l48.72-84h22.8l8.88,32.16
		L425.16,42.5z M436.68,84.5l-5.04-16.68l17.28-22.32l10.56,39H436.68z"/>
	<path class="st0" d="M474.96,0.5h48.96c15.24,0,23.16,7.68,23.16,20.76c0,20.16-15,32.88-34.8,32.88H489l-4.2,30.36h-21.6
		L474.96,0.5z M513.72,37.34c7.2,0,10.56-4.92,11.28-10.32c0.6-4.08-0.24-9.72-7.2-9.72h-23.64l-2.76,20.04H513.72z M522.08,53.02
		c7.09,10.49,14.19,20.99,21.28,31.48h-25.08c-6.5-10.12-13.01-20.24-19.51-30.36C506.54,53.77,514.31,53.39,522.08,53.02z"/>
	<path class="st0" d="M555.84,49.46l6.84-48.96h64.92l-11.88,16.8H579.6l-2.16,15.36h20.04c14.88,0,23.28,7.68,23.28,21.12
		c0,16.68-9.72,30.72-27.72,30.72h-49.68l11.88-16.8h32.52c6.12,0,10.68-3.72,11.4-8.88c0.84-6.36-3.72-9.36-12.6-9.36H555.84z"/>
	<path class="st0" d="M637.44,27.14c0-17.4,11.28-26.64,28.44-26.64h19.8c15.72,0,24.12,7.32,22.08,21.84
		c-1.32,9.24-4.8,12.96-10.08,18.24c6.36,4.32,10.68,11.28,9.24,21.24c-1.8,13.08-11.04,22.68-29.64,22.68h-26.52
		c-18.6,0-25.2-9.6-23.4-22.68c1.44-9.96,7.68-16.92,15.24-21.24C639.48,36.38,637.44,33.14,637.44,27.14z M657.72,67.7h17.16
		c4.92,0,10.44-2.52,11.28-8.28c1.08-7.56-9-8.28-16.2-8.28h-2.52c-7.2,0-17.52,0.72-18.6,8.28C648,65.18,652.8,67.7,657.72,67.7z
		 M668.52,34.34h5.16c4.92,0,11.64-2.16,12.6-9c0.84-6-3.84-8.04-7.68-8.04h-10.2c-3.84,0-9.24,2.04-10.08,8.04
		C657.36,32.18,663.6,34.34,668.52,34.34z"/>
	<path class="st0" d="M724.32,27.14c0-17.4,11.28-26.64,28.44-26.64h19.8c15.72,0,24.12,7.32,22.08,21.84
		c-1.32,9.24-4.8,12.96-10.08,18.24c6.36,4.32,10.68,11.28,9.24,21.24C792,74.9,782.76,84.5,764.16,84.5h-26.52
		c-18.6,0-25.2-9.6-23.4-22.68c1.44-9.96,7.68-16.92,15.24-21.24C726.36,36.38,724.32,33.14,724.32,27.14z M744.6,67.7h17.16
		c4.92,0,10.44-2.52,11.28-8.28c1.08-7.56-9-8.28-16.2-8.28h-2.52c-7.2,0-17.52,0.72-18.6,8.28C734.88,65.18,739.68,67.7,744.6,67.7
		z M755.4,34.34h5.16c4.92,0,11.64-2.16,12.6-9c0.84-6-3.84-8.04-7.68-8.04h-10.2c-3.84,0-9.24,2.04-10.08,8.04
		C744.24,32.18,750.48,34.34,755.4,34.34z"/>
</g>
</svg>
