<?xml version="1.0" encoding="utf-8"?>
<!-- Generator: Adobe Illustrator 26.0.1, SVG Export Plug-In . SVG Version: 6.00 Build 0)  -->
<svg version="1.1" id="Camada_1" xmlns="http://www.w3.org/2000/svg" xmlns:xlink="http://www.w3.org/1999/xlink" x="0px" y="0px"
	 viewBox="0 0 800 85" style="enable-background:new 0 0 800 85;" xml:space="preserve">
<style type="text/css">
	.st0{fill:#CA1919;}
	.st1{fill:#21408D;}
</style>
<g>
	<path class="st0" d="M22.4,2h21.1l-6.1,43.2c20.3-7,40.6-13.9,60.9-20.9C90.7,32.6,83.1,40.8,75.5,49L35,62.8L32,84H10.9L22.4,2z
		 M74.8,53.8l24-20.7L91.6,84H70.6L74.8,53.8z M74.4,56.5C76.9,38.4,79.5,20.2,82,2h21.1c-1.6,11.7-3.3,23.4-4.9,35.1
		C90.3,43.6,82.3,50.1,74.4,56.5z"/>
	<path class="st0" d="M154.5,43l-4-14.8l-16.6,28.6L183.8,32l-23.7,30.9L118.2,84H96l47.5-82h22.2l8.7,31.4L154.5,43z M165.8,84
		l-4.9-16.3l16.9-21.8L188,84H165.8z"/>
	<path class="st0" d="M203.1,2h21.1l32.7,54.5L264.5,2h21.1l-11.5,82H253l-32.7-54.5L212.7,84h-21.1L203.1,2z"/>
	<path class="st0" d="M364.1,62.9c-1.8,12.6-11.4,21.1-24,21.1h-35.5c-12.6,0-19.9-8.4-18.2-21.1l5.6-39.8
		c1.8-12.6,11.4-21.1,24-21.1h46.3l-11.6,16.4h-25.6c-6.8,0-12.1,5-13.1,12.6L308.7,55c-1.1,7.6,2.6,12.6,9.4,12.6h24.2l2.7-18.4
		h-20.8l-7.1-16.4h30.2c12.6,0,19.9,8.4,18.2,21.1L364.1,62.9z"/>
	<path class="st0" d="M420.9,43l-4-14.8l-16.6,28.6L450.2,32l-23.7,30.9L384.6,84h-22.2l47.5-82h22.2l8.7,31.4L420.9,43z M432.2,84
		l-4.9-16.3l16.9-21.8L454.4,84H432.2z"/>
	<path class="st0" d="M469.5,2h47.8c14.9,0,22.6,7.5,22.6,20.3c0,19.7-14.6,32.1-34,32.1h-22.7L479.1,84H458L469.5,2z M507.3,38
		c7,0,10.3-4.8,11-10.1c0.6-4-0.2-9.5-7-9.5h-23.1L485.6,38H507.3z M515.5,53.3c6.9,10.2,13.8,20.5,20.8,30.7h-24.5
		c-6.3-9.9-12.7-19.8-19-29.6C500.3,54,507.9,53.6,515.5,53.3z"/>
	<path class="st1" d="M548.4,49.8L555.1,2h63.4l-11.6,16.4h-35.2l-2.1,15h19.6c14.5,0,22.7,7.5,22.7,20.6c0,16.3-9.5,30-27.1,30
		h-48.5l11.6-16.4h31.7c6,0,10.4-3.6,11.1-8.7c0.8-6.2-3.6-9.1-12.3-9.1H548.4z"/>
	<path class="st1" d="M628.1,28c0-17,11-26,27.8-26h19.3c15.3,0,23.5,7.1,21.5,21.3c-1.3,9-4.7,12.6-9.8,17.8
		c6.2,4.2,10.4,11,9,20.7C694.1,74.6,685.1,84,667,84h-25.9c-18.2,0-24.6-9.4-22.8-22.1c1.4-9.7,7.5-16.5,14.9-20.7
		C630.1,37,628.1,33.9,628.1,28z M647.9,67.6h16.7c4.8,0,10.2-2.5,11-8.1c1.1-7.4-8.8-8.1-15.8-8.1h-2.5c-7,0-17.1,0.7-18.2,8.1
		C638.4,65.1,643.1,67.6,647.9,67.6z M658.4,35.1h5c4.8,0,11.4-2.1,12.3-8.8c0.8-5.9-3.7-7.8-7.5-7.8h-10c-3.7,0-9,2-9.8,7.8
		C647.5,32.9,653.6,35.1,658.4,35.1z"/>
	<path class="st1" d="M712.9,28c0-17,11-26,27.8-26h19.3c15.3,0,23.5,7.1,21.5,21.3c-1.3,9-4.7,12.6-9.8,17.8
		c6.2,4.2,10.4,11,9,20.7C778.9,74.6,769.9,84,751.7,84h-25.9c-18.2,0-24.6-9.4-22.8-22.1c1.4-9.7,7.5-16.5,14.9-20.7
		C714.9,37,712.9,33.9,712.9,28z M732.7,67.6h16.7c4.8,0,10.2-2.5,11-8.1c1.1-7.4-8.8-8.1-15.8-8.1h-2.5c-7,0-17.1,0.7-18.2,8.1
		C723.2,65.1,727.8,67.6,732.7,67.6z M743.2,35.1h5c4.8,0,11.4-2.1,12.3-8.8c0.8-5.9-3.7-7.8-7.5-7.8h-10c-3.7,0-9,2-9.8,7.8
		C732.3,32.9,738.4,35.1,743.2,35.1z"/>
</g>
</svg>
